<?xml version="1.0" encoding="UTF-8"?>
<svg xmlns="http://www.w3.org/2000/svg" xmlns:xlink="http://www.w3.org/1999/xlink" width="500" zoomAndPan="magnify" viewBox="0 0 375 374.999991" height="500" preserveAspectRatio="xMidYMid meet" version="1.0">
  <defs>
    <g></g>
    <clipPath id="1f90faa6cf">
      <path d="M 109.875 79.902344 L 179.625 79.902344 L 179.625 234.402344 L 109.875 234.402344 Z M 109.875 79.902344 " clip-rule="nonzero"></path>
    </clipPath>
    <clipPath id="8b695793bc">
      <path d="M 184.652344 78.214844 L 190.652344 78.214844 L 190.652344 265.714844 L 184.652344 265.714844 Z M 184.652344 78.214844 " clip-rule="nonzero"></path>
    </clipPath>
    <clipPath id="dee8b487c4">
      <path d="M 0.652344 0.214844 L 6.652344 0.214844 L 6.652344 187.714844 L 0.652344 187.714844 Z M 0.652344 0.214844 " clip-rule="nonzero"></path>
    </clipPath>
    <clipPath id="90b62ba4bf">
      <rect x="0" width="7" y="0" height="188"></rect>
    </clipPath>
    <clipPath id="66aa5d2bf8">
      <path d="M 195.480469 111.214844 L 265.230469 111.214844 L 265.230469 265.714844 L 195.480469 265.714844 Z M 195.480469 111.214844 " clip-rule="nonzero"></path>
    </clipPath>
  </defs>
  <g fill="#ffffff" fill-opacity="1">
    <g transform="translate(112.966243, 293.249513)">
      <g>
        <path d="M 6.4375 0 C 7.132812 0 7.789062 -0.113281 8.40625 -0.34375 C 9.03125 -0.570312 9.535156 -0.921875 9.921875 -1.390625 C 10.316406 -1.859375 10.515625 -2.460938 10.515625 -3.203125 C 10.515625 -3.960938 10.289062 -4.644531 9.84375 -5.25 C 9.394531 -5.851562 8.8125 -6.414062 8.09375 -6.9375 C 7.375 -7.457031 6.613281 -7.957031 5.8125 -8.4375 C 5.007812 -8.925781 4.25 -9.421875 3.53125 -9.921875 C 2.820312 -10.421875 2.238281 -10.945312 1.78125 -11.5 C 1.332031 -12.0625 1.109375 -12.679688 1.109375 -13.359375 C 1.109375 -14.253906 1.351562 -15.003906 1.84375 -15.609375 C 2.34375 -16.222656 2.972656 -16.679688 3.734375 -16.984375 C 4.492188 -17.296875 5.285156 -17.453125 6.109375 -17.453125 C 6.703125 -17.453125 7.304688 -17.394531 7.921875 -17.28125 C 8.535156 -17.175781 9.113281 -17.050781 9.65625 -16.90625 C 10.195312 -16.757812 10.648438 -16.601562 11.015625 -16.4375 L 11.015625 -13.328125 L 10.765625 -13.328125 C 10.734375 -13.953125 10.515625 -14.5625 10.109375 -15.15625 C 9.710938 -15.75 9.171875 -16.238281 8.484375 -16.625 C 7.804688 -17.019531 7.015625 -17.21875 6.109375 -17.21875 C 5.503906 -17.21875 4.925781 -17.113281 4.375 -16.90625 C 3.820312 -16.707031 3.375 -16.414062 3.03125 -16.03125 C 2.695312 -15.644531 2.53125 -15.179688 2.53125 -14.640625 C 2.53125 -14.046875 2.753906 -13.488281 3.203125 -12.96875 C 3.660156 -12.457031 4.242188 -11.96875 4.953125 -11.5 C 5.660156 -11.03125 6.414062 -10.546875 7.21875 -10.046875 C 8.019531 -9.554688 8.773438 -9.035156 9.484375 -8.484375 C 10.191406 -7.929688 10.769531 -7.316406 11.21875 -6.640625 C 11.675781 -5.972656 11.90625 -5.222656 11.90625 -4.390625 C 11.90625 -3.546875 11.726562 -2.828125 11.375 -2.234375 C 11.03125 -1.648438 10.582031 -1.175781 10.03125 -0.8125 C 9.488281 -0.445312 8.898438 -0.179688 8.265625 -0.015625 C 7.628906 0.140625 7.019531 0.21875 6.4375 0.21875 C 5.84375 0.238281 5.210938 0.195312 4.546875 0.09375 C 3.878906 0 3.242188 -0.117188 2.640625 -0.265625 C 2.046875 -0.421875 1.535156 -0.578125 1.109375 -0.734375 L 1.109375 -4.265625 L 1.328125 -4.265625 C 1.359375 -3.816406 1.507812 -3.347656 1.78125 -2.859375 C 2.050781 -2.367188 2.414062 -1.90625 2.875 -1.46875 C 3.34375 -1.03125 3.878906 -0.675781 4.484375 -0.40625 C 5.085938 -0.132812 5.738281 0 6.4375 0 Z M 6.4375 0 "></path>
      </g>
    </g>
  </g>
  <g fill="#ffffff" fill-opacity="1">
    <g transform="translate(125.849233, 293.249513)">
      <g>
        <path d="M 11.359375 -4.28125 C 11.359375 -3.53125 11.359375 -2.785156 11.359375 -2.046875 C 11.359375 -1.304688 11.359375 -0.613281 11.359375 0.03125 L 11.109375 0.03125 L 9.65625 -1.140625 C 9.226562 -0.753906 8.691406 -0.425781 8.046875 -0.15625 C 7.410156 0.113281 6.707031 0.25 5.9375 0.25 C 5.101562 0.25 4.296875 0.109375 3.515625 -0.171875 C 2.742188 -0.460938 2.109375 -0.910156 1.609375 -1.515625 C 1.109375 -2.117188 0.859375 -2.894531 0.859375 -3.84375 C 0.859375 -4.726562 1.128906 -5.515625 1.671875 -6.203125 C 2.210938 -6.898438 2.914062 -7.453125 3.78125 -7.859375 C 4.65625 -8.265625 5.601562 -8.46875 6.625 -8.46875 C 7.21875 -8.46875 7.769531 -8.359375 8.28125 -8.140625 C 8.800781 -7.929688 9.257812 -7.664062 9.65625 -7.34375 L 9.65625 -8.875 C 9.675781 -10.039062 9.476562 -10.941406 9.0625 -11.578125 C 8.65625 -12.222656 8.070312 -12.546875 7.3125 -12.546875 C 6.613281 -12.546875 5.925781 -12.328125 5.25 -11.890625 C 4.570312 -11.453125 3.976562 -10.914062 3.46875 -10.28125 C 2.957031 -9.65625 2.582031 -9.019531 2.34375 -8.375 L 2.09375 -8.375 L 3.28125 -11.90625 C 3.457031 -11.988281 3.78125 -12.09375 4.25 -12.21875 C 4.71875 -12.351562 5.226562 -12.476562 5.78125 -12.59375 C 6.34375 -12.707031 6.851562 -12.765625 7.3125 -12.765625 C 8.8125 -12.765625 9.859375 -12.453125 10.453125 -11.828125 C 11.054688 -11.203125 11.359375 -10.222656 11.359375 -8.890625 C 11.359375 -8.234375 11.359375 -7.503906 11.359375 -6.703125 C 11.359375 -5.910156 11.359375 -5.101562 11.359375 -4.28125 Z M 9.65625 -1.375 L 9.65625 -7.078125 C 9.132812 -7.566406 8.523438 -7.914062 7.828125 -8.125 C 7.128906 -8.34375 6.382812 -8.351562 5.59375 -8.15625 C 4.71875 -7.925781 3.992188 -7.441406 3.421875 -6.703125 C 2.847656 -5.960938 2.5625 -5.078125 2.5625 -4.046875 C 2.5625 -3.347656 2.726562 -2.695312 3.0625 -2.09375 C 3.40625 -1.5 3.859375 -1.015625 4.421875 -0.640625 C 4.984375 -0.273438 5.597656 -0.09375 6.265625 -0.09375 C 7.117188 -0.09375 7.828125 -0.234375 8.390625 -0.515625 C 8.953125 -0.796875 9.375 -1.082031 9.65625 -1.375 Z M 9.65625 -1.375 "></path>
      </g>
    </g>
  </g>
  <g fill="#ffffff" fill-opacity="1">
    <g transform="translate(138.707596, 293.249513)">
      <g>
        <path d="M 8.328125 -12.3125 L 8.328125 -12.5625 L 11.3125 -12.5625 L 11.3125 -12.3125 C 10.320312 -12.269531 9.441406 -11.039062 8.671875 -8.625 L 6.40625 -1.53125 C 6.382812 -1.425781 6.351562 -1.300781 6.3125 -1.15625 C 6.144531 -0.5625 5.945312 0.0625 5.71875 0.71875 C 5.5 1.382812 5.222656 2.019531 4.890625 2.625 C 4.554688 3.226562 4.140625 3.71875 3.640625 4.09375 C 3.140625 4.46875 2.535156 4.65625 1.828125 4.65625 C 1.265625 4.65625 0.722656 4.550781 0.203125 4.34375 L 0.203125 1.65625 L 0.421875 1.65625 C 0.429688 2.007812 0.539062 2.269531 0.75 2.4375 C 0.957031 2.613281 1.1875 2.726562 1.4375 2.78125 C 1.695312 2.832031 1.90625 2.859375 2.0625 2.859375 C 2.65625 2.859375 3.226562 2.632812 3.78125 2.1875 C 4.332031 1.75 4.820312 1.195312 5.25 0.53125 C 5.675781 -0.132812 5.988281 -0.8125 6.1875 -1.5 L 6.1875 -1.53125 L 3.28125 -8.546875 C 2.78125 -9.742188 2.269531 -10.664062 1.75 -11.3125 C 1.226562 -11.96875 0.726562 -12.300781 0.25 -12.3125 L 0.25 -12.5625 L 4.65625 -12.5625 L 4.65625 -12.3125 C 4.457031 -12.300781 4.316406 -12.226562 4.234375 -12.09375 C 4.066406 -11.863281 4.046875 -11.460938 4.171875 -10.890625 C 4.296875 -10.316406 4.570312 -9.519531 5 -8.5 L 6.921875 -3.84375 L 8.40625 -8.53125 C 9.007812 -10.4375 9.148438 -11.617188 8.828125 -12.078125 C 8.710938 -12.222656 8.546875 -12.300781 8.328125 -12.3125 Z M 8.328125 -12.3125 "></path>
      </g>
    </g>
  </g>
  <g fill="#ffffff" fill-opacity="1">
    <g transform="translate(150.260417, 293.249513)">
      <g>
        <path d="M 8.234375 -0.09375 C 8.804688 -0.195312 9.351562 -0.425781 9.875 -0.78125 C 10.40625 -1.144531 10.867188 -1.597656 11.265625 -2.140625 L 11.4375 -2.015625 C 10.9375 -1.328125 10.332031 -0.78125 9.625 -0.375 C 8.925781 0.0195312 8.109375 0.21875 7.171875 0.21875 C 6.023438 0.21875 4.984375 -0.0703125 4.046875 -0.65625 C 3.109375 -1.238281 2.359375 -2.019531 1.796875 -3 C 1.242188 -3.988281 0.96875 -5.082031 0.96875 -6.28125 C 0.96875 -7.476562 1.242188 -8.566406 1.796875 -9.546875 C 2.359375 -10.523438 3.109375 -11.304688 4.046875 -11.890625 C 4.984375 -12.484375 6.023438 -12.78125 7.171875 -12.78125 C 8.035156 -12.78125 8.800781 -12.566406 9.46875 -12.140625 C 10.132812 -11.710938 10.664062 -11.175781 11.0625 -10.53125 C 11.457031 -9.894531 11.6875 -9.25 11.75 -8.59375 L 2.78125 -8.59375 C 2.582031 -7.613281 2.566406 -6.585938 2.734375 -5.515625 C 2.929688 -4.378906 3.304688 -3.375 3.859375 -2.5 C 4.421875 -1.632812 5.082031 -0.984375 5.84375 -0.546875 C 6.613281 -0.117188 7.410156 0.03125 8.234375 -0.09375 Z M 6.140625 -12.46875 C 5.328125 -12.320312 4.632812 -11.921875 4.0625 -11.265625 C 3.488281 -10.609375 3.078125 -9.796875 2.828125 -8.828125 L 9.984375 -8.828125 C 9.847656 -9.566406 9.601562 -10.226562 9.25 -10.8125 C 8.894531 -11.40625 8.453125 -11.859375 7.921875 -12.171875 C 7.390625 -12.484375 6.796875 -12.582031 6.140625 -12.46875 Z M 6.140625 -12.46875 "></path>
      </g>
    </g>
  </g>
  <g fill="#ffffff" fill-opacity="1">
    <g transform="translate(162.773913, 293.249513)">
      <g>
        <path d="M 11.703125 -4.015625 C 11.703125 -2.703125 11.804688 -1.75 12.015625 -1.15625 C 12.234375 -0.5625 12.585938 -0.25 13.078125 -0.21875 L 13.078125 0 L 10 0 L 10 -0.609375 C 9.601562 -0.335938 9.164062 -0.132812 8.6875 0 C 8.21875 0.144531 7.710938 0.21875 7.171875 0.21875 C 6.023438 0.21875 4.984375 -0.0703125 4.046875 -0.65625 C 3.109375 -1.238281 2.359375 -2.019531 1.796875 -3 C 1.242188 -3.988281 0.96875 -5.082031 0.96875 -6.28125 C 0.96875 -7.476562 1.242188 -8.566406 1.796875 -9.546875 C 2.359375 -10.523438 3.109375 -11.304688 4.046875 -11.890625 C 4.984375 -12.484375 6.023438 -12.78125 7.171875 -12.78125 C 7.734375 -12.78125 8.253906 -12.6875 8.734375 -12.5 C 9.222656 -12.3125 9.644531 -12.0625 10 -11.75 L 10 -13.203125 C 10 -14.515625 9.890625 -15.46875 9.671875 -16.0625 C 9.460938 -16.65625 9.125 -16.96875 8.65625 -17 L 8.65625 -17.21875 L 11.703125 -17.21875 Z M 10 -0.890625 L 10 -8.59375 C 9.90625 -9.363281 9.679688 -10.0625 9.328125 -10.6875 C 8.972656 -11.3125 8.523438 -11.789062 7.984375 -12.125 C 7.441406 -12.46875 6.828125 -12.582031 6.140625 -12.46875 C 5.316406 -12.320312 4.613281 -11.914062 4.03125 -11.25 C 3.457031 -10.582031 3.050781 -9.75 2.8125 -8.75 C 2.582031 -7.75 2.554688 -6.671875 2.734375 -5.515625 C 2.929688 -4.378906 3.304688 -3.375 3.859375 -2.5 C 4.421875 -1.632812 5.082031 -0.984375 5.84375 -0.546875 C 6.613281 -0.117188 7.410156 0.03125 8.234375 -0.09375 C 8.835938 -0.195312 9.425781 -0.460938 10 -0.890625 Z M 10 -0.890625 "></path>
      </g>
    </g>
  </g>
  <g fill="#ffffff" fill-opacity="1">
    <g transform="translate(176.519056, 293.249513)">
      <g></g>
    </g>
  </g>
  <g fill="#ffd700" fill-opacity="1">
    <g transform="translate(184.239675, 293.249513)">
      <g>
        <path d="M 6.4375 0 C 7.132812 0 7.789062 -0.113281 8.40625 -0.34375 C 9.03125 -0.570312 9.535156 -0.921875 9.921875 -1.390625 C 10.316406 -1.859375 10.515625 -2.460938 10.515625 -3.203125 C 10.515625 -3.960938 10.289062 -4.644531 9.84375 -5.25 C 9.394531 -5.851562 8.8125 -6.414062 8.09375 -6.9375 C 7.375 -7.457031 6.613281 -7.957031 5.8125 -8.4375 C 5.007812 -8.925781 4.25 -9.421875 3.53125 -9.921875 C 2.820312 -10.421875 2.238281 -10.945312 1.78125 -11.5 C 1.332031 -12.0625 1.109375 -12.679688 1.109375 -13.359375 C 1.109375 -14.253906 1.351562 -15.003906 1.84375 -15.609375 C 2.34375 -16.222656 2.972656 -16.679688 3.734375 -16.984375 C 4.492188 -17.296875 5.285156 -17.453125 6.109375 -17.453125 C 6.703125 -17.453125 7.304688 -17.394531 7.921875 -17.28125 C 8.535156 -17.175781 9.113281 -17.050781 9.65625 -16.90625 C 10.195312 -16.757812 10.648438 -16.601562 11.015625 -16.4375 L 11.015625 -13.328125 L 10.765625 -13.328125 C 10.734375 -13.953125 10.515625 -14.5625 10.109375 -15.15625 C 9.710938 -15.75 9.171875 -16.238281 8.484375 -16.625 C 7.804688 -17.019531 7.015625 -17.21875 6.109375 -17.21875 C 5.503906 -17.21875 4.925781 -17.113281 4.375 -16.90625 C 3.820312 -16.707031 3.375 -16.414062 3.03125 -16.03125 C 2.695312 -15.644531 2.53125 -15.179688 2.53125 -14.640625 C 2.53125 -14.046875 2.753906 -13.488281 3.203125 -12.96875 C 3.660156 -12.457031 4.242188 -11.96875 4.953125 -11.5 C 5.660156 -11.03125 6.414062 -10.546875 7.21875 -10.046875 C 8.019531 -9.554688 8.773438 -9.035156 9.484375 -8.484375 C 10.191406 -7.929688 10.769531 -7.316406 11.21875 -6.640625 C 11.675781 -5.972656 11.90625 -5.222656 11.90625 -4.390625 C 11.90625 -3.546875 11.726562 -2.828125 11.375 -2.234375 C 11.03125 -1.648438 10.582031 -1.175781 10.03125 -0.8125 C 9.488281 -0.445312 8.898438 -0.179688 8.265625 -0.015625 C 7.628906 0.140625 7.019531 0.21875 6.4375 0.21875 C 5.84375 0.238281 5.210938 0.195312 4.546875 0.09375 C 3.878906 0 3.242188 -0.117188 2.640625 -0.265625 C 2.046875 -0.421875 1.535156 -0.578125 1.109375 -0.734375 L 1.109375 -4.265625 L 1.328125 -4.265625 C 1.359375 -3.816406 1.507812 -3.347656 1.78125 -2.859375 C 2.050781 -2.367188 2.414062 -1.90625 2.875 -1.46875 C 3.34375 -1.03125 3.878906 -0.675781 4.484375 -0.40625 C 5.085938 -0.132812 5.738281 0 6.4375 0 Z M 6.4375 0 "></path>
      </g>
    </g>
  </g>
  <g fill="#ffd700" fill-opacity="1">
    <g transform="translate(197.122666, 293.249513)">
      <g>
        <path d="M 10.75 -4.015625 C 10.75 -2.703125 10.851562 -1.75 11.0625 -1.15625 C 11.28125 -0.5625 11.625 -0.25 12.09375 -0.21875 L 12.09375 0 L 9.046875 0 L 9.046875 -1.921875 C 8.503906 -1.066406 7.9375 -0.492188 7.34375 -0.203125 C 6.75 0.078125 6.148438 0.21875 5.546875 0.21875 C 4.585938 0.21875 3.847656 0.03125 3.328125 -0.34375 C 2.816406 -0.71875 2.460938 -1.222656 2.265625 -1.859375 C 2.066406 -2.503906 1.96875 -3.210938 1.96875 -3.984375 L 1.96875 -8.53125 C 1.96875 -9.851562 1.863281 -10.8125 1.65625 -11.40625 C 1.457031 -12 1.109375 -12.300781 0.609375 -12.3125 L 0.609375 -12.5625 L 3.671875 -12.5625 C 3.671875 -12.070312 3.671875 -11.441406 3.671875 -10.671875 C 3.671875 -9.898438 3.671875 -9.082031 3.671875 -8.21875 C 3.671875 -7.351562 3.671875 -6.539062 3.671875 -5.78125 C 3.671875 -5.03125 3.671875 -4.429688 3.671875 -3.984375 C 3.671875 -3.367188 3.722656 -2.765625 3.828125 -2.171875 C 3.929688 -1.578125 4.15625 -1.085938 4.5 -0.703125 C 4.851562 -0.316406 5.390625 -0.125 6.109375 -0.125 C 6.554688 -0.125 6.972656 -0.242188 7.359375 -0.484375 C 7.742188 -0.722656 8.078125 -1.015625 8.359375 -1.359375 C 8.648438 -1.703125 8.878906 -2.019531 9.046875 -2.3125 C 9.046875 -2.382812 9.046875 -2.632812 9.046875 -3.0625 C 9.046875 -3.5 9.046875 -4.019531 9.046875 -4.625 C 9.046875 -5.238281 9.046875 -5.84375 9.046875 -6.4375 C 9.046875 -7.039062 9.046875 -7.539062 9.046875 -7.9375 C 9.046875 -8.332031 9.046875 -8.53125 9.046875 -8.53125 C 9.046875 -9.851562 8.9375 -10.8125 8.71875 -11.40625 C 8.507812 -12 8.15625 -12.300781 7.65625 -12.3125 L 7.65625 -12.5625 L 10.75 -12.5625 C 10.75 -11.238281 10.75 -9.832031 10.75 -8.34375 C 10.75 -6.851562 10.75 -5.410156 10.75 -4.015625 Z M 10.75 -4.015625 "></path>
      </g>
    </g>
  </g>
  <g fill="#ffd700" fill-opacity="1">
    <g transform="translate(209.907123, 293.249513)">
      <g>
        <path d="M 3.71875 -4.015625 C 3.71875 -2.703125 3.820312 -1.75 4.03125 -1.15625 C 4.25 -0.5625 4.601562 -0.25 5.09375 -0.21875 L 5.09375 0 L 0.671875 0 L 0.671875 -0.21875 C 1.160156 -0.25 1.503906 -0.5625 1.703125 -1.15625 C 1.910156 -1.75 2.015625 -2.703125 2.015625 -4.015625 L 2.015625 -13.203125 C 2.015625 -14.515625 1.910156 -15.46875 1.703125 -16.0625 C 1.503906 -16.65625 1.160156 -16.96875 0.671875 -17 L 0.671875 -17.21875 L 3.71875 -17.21875 Z M 3.71875 -4.015625 "></path>
      </g>
    </g>
  </g>
  <g fill="#ffd700" fill-opacity="1">
    <g transform="translate(215.671214, 293.249513)">
      <g>
        <path d="M 3.796875 -4.015625 C 3.796875 -2.703125 3.898438 -1.75 4.109375 -1.15625 C 4.328125 -0.5625 4.679688 -0.25 5.171875 -0.21875 L 5.171875 0 L 0.734375 0 L 0.734375 -0.21875 C 1.234375 -0.25 1.582031 -0.5625 1.78125 -1.15625 C 1.988281 -1.75 2.09375 -2.703125 2.09375 -4.015625 L 2.09375 -8.53125 C 2.09375 -9.851562 1.988281 -10.8125 1.78125 -11.40625 C 1.582031 -12 1.234375 -12.300781 0.734375 -12.3125 L 0.734375 -12.5625 L 3.796875 -12.5625 Z M 2.828125 -13.703125 C 2.484375 -13.703125 2.1875 -13.820312 1.9375 -14.0625 C 1.695312 -14.3125 1.578125 -14.609375 1.578125 -14.953125 C 1.578125 -15.296875 1.695312 -15.59375 1.9375 -15.84375 C 2.1875 -16.09375 2.484375 -16.21875 2.828125 -16.21875 C 3.171875 -16.21875 3.46875 -16.09375 3.71875 -15.84375 C 3.96875 -15.59375 4.09375 -15.296875 4.09375 -14.953125 C 4.09375 -14.609375 3.96875 -14.3125 3.71875 -14.0625 C 3.46875 -13.820312 3.171875 -13.703125 2.828125 -13.703125 Z M 2.828125 -13.703125 "></path>
      </g>
    </g>
  </g>
  <g fill="#ffd700" fill-opacity="1">
    <g transform="translate(221.5092, 293.249513)">
      <g>
        <path d="M 18.671875 -4.015625 C 18.671875 -2.703125 18.773438 -1.75 18.984375 -1.15625 C 19.203125 -0.5625 19.550781 -0.25 20.03125 -0.21875 L 20.03125 0 L 15.59375 0 L 15.59375 -0.21875 C 16.09375 -0.25 16.445312 -0.5625 16.65625 -1.15625 C 16.875 -1.75 16.984375 -2.703125 16.984375 -4.015625 L 16.984375 -8.921875 C 16.984375 -9.523438 16.9375 -10.101562 16.84375 -10.65625 C 16.75 -11.21875 16.535156 -11.671875 16.203125 -12.015625 C 15.878906 -12.367188 15.359375 -12.546875 14.640625 -12.546875 C 13.765625 -12.546875 13.023438 -12.3125 12.421875 -11.84375 C 11.828125 -11.375 11.425781 -10.71875 11.21875 -9.875 L 11.21875 -9.859375 C 11.25 -9.578125 11.265625 -9.265625 11.265625 -8.921875 L 11.265625 -4.015625 C 11.265625 -2.703125 11.367188 -1.75 11.578125 -1.15625 C 11.796875 -0.5625 12.148438 -0.25 12.640625 -0.21875 L 12.640625 0 L 8.203125 0 L 8.203125 -0.21875 C 8.679688 -0.25 9.023438 -0.5625 9.234375 -1.15625 C 9.453125 -1.75 9.5625 -2.703125 9.5625 -4.015625 L 9.5625 -8.921875 C 9.5625 -9.523438 9.515625 -10.101562 9.421875 -10.65625 C 9.335938 -11.21875 9.128906 -11.671875 8.796875 -12.015625 C 8.460938 -12.367188 7.945312 -12.546875 7.25 -12.546875 C 6.375 -12.546875 5.628906 -12.3125 5.015625 -11.84375 C 4.410156 -11.375 4.007812 -10.71875 3.8125 -9.875 L 3.796875 -9.875 L 3.796875 -4.015625 C 3.796875 -2.703125 3.898438 -1.75 4.109375 -1.15625 C 4.328125 -0.5625 4.679688 -0.25 5.171875 -0.21875 L 5.171875 0 L 0.734375 0 L 0.734375 -0.21875 C 1.234375 -0.25 1.582031 -0.5625 1.78125 -1.15625 C 1.988281 -1.75 2.09375 -2.703125 2.09375 -4.015625 L 2.09375 -8.53125 C 2.09375 -9.851562 1.988281 -10.8125 1.78125 -11.40625 C 1.582031 -12 1.234375 -12.300781 0.734375 -12.3125 L 0.734375 -12.5625 L 3.796875 -12.5625 L 3.796875 -10.640625 C 4.109375 -11.316406 4.5625 -11.84375 5.15625 -12.21875 C 5.757812 -12.59375 6.457031 -12.78125 7.25 -12.78125 C 8.363281 -12.78125 9.226562 -12.601562 9.84375 -12.25 C 10.457031 -11.90625 10.875 -11.351562 11.09375 -10.59375 L 11.109375 -10.421875 L 11.1875 -10.578125 C 11.476562 -11.265625 11.925781 -11.800781 12.53125 -12.1875 C 13.144531 -12.582031 13.847656 -12.78125 14.640625 -12.78125 C 15.753906 -12.78125 16.597656 -12.613281 17.171875 -12.28125 C 17.742188 -11.957031 18.132812 -11.507812 18.34375 -10.9375 C 18.5625 -10.363281 18.671875 -9.691406 18.671875 -8.921875 Z M 18.671875 -4.015625 "></path>
      </g>
    </g>
  </g>
  <g fill="#ffd700" fill-opacity="1">
    <g transform="translate(242.176175, 293.249513)">
      <g>
        <path d="M 11.359375 -4.28125 C 11.359375 -3.53125 11.359375 -2.785156 11.359375 -2.046875 C 11.359375 -1.304688 11.359375 -0.613281 11.359375 0.03125 L 11.109375 0.03125 L 9.65625 -1.140625 C 9.226562 -0.753906 8.691406 -0.425781 8.046875 -0.15625 C 7.410156 0.113281 6.707031 0.25 5.9375 0.25 C 5.101562 0.25 4.296875 0.109375 3.515625 -0.171875 C 2.742188 -0.460938 2.109375 -0.910156 1.609375 -1.515625 C 1.109375 -2.117188 0.859375 -2.894531 0.859375 -3.84375 C 0.859375 -4.726562 1.128906 -5.515625 1.671875 -6.203125 C 2.210938 -6.898438 2.914062 -7.453125 3.78125 -7.859375 C 4.65625 -8.265625 5.601562 -8.46875 6.625 -8.46875 C 7.21875 -8.46875 7.769531 -8.359375 8.28125 -8.140625 C 8.800781 -7.929688 9.257812 -7.664062 9.65625 -7.34375 L 9.65625 -8.875 C 9.675781 -10.039062 9.476562 -10.941406 9.0625 -11.578125 C 8.65625 -12.222656 8.070312 -12.546875 7.3125 -12.546875 C 6.613281 -12.546875 5.925781 -12.328125 5.25 -11.890625 C 4.570312 -11.453125 3.976562 -10.914062 3.46875 -10.28125 C 2.957031 -9.65625 2.582031 -9.019531 2.34375 -8.375 L 2.09375 -8.375 L 3.28125 -11.90625 C 3.457031 -11.988281 3.78125 -12.09375 4.25 -12.21875 C 4.71875 -12.351562 5.226562 -12.476562 5.78125 -12.59375 C 6.34375 -12.707031 6.851562 -12.765625 7.3125 -12.765625 C 8.8125 -12.765625 9.859375 -12.453125 10.453125 -11.828125 C 11.054688 -11.203125 11.359375 -10.222656 11.359375 -8.890625 C 11.359375 -8.234375 11.359375 -7.503906 11.359375 -6.703125 C 11.359375 -5.910156 11.359375 -5.101562 11.359375 -4.28125 Z M 9.65625 -1.375 L 9.65625 -7.078125 C 9.132812 -7.566406 8.523438 -7.914062 7.828125 -8.125 C 7.128906 -8.34375 6.382812 -8.351562 5.59375 -8.15625 C 4.71875 -7.925781 3.992188 -7.441406 3.421875 -6.703125 C 2.847656 -5.960938 2.5625 -5.078125 2.5625 -4.046875 C 2.5625 -3.347656 2.726562 -2.695312 3.0625 -2.09375 C 3.40625 -1.5 3.859375 -1.015625 4.421875 -0.640625 C 4.984375 -0.273438 5.597656 -0.09375 6.265625 -0.09375 C 7.117188 -0.09375 7.828125 -0.234375 8.390625 -0.515625 C 8.953125 -0.796875 9.375 -1.082031 9.65625 -1.375 Z M 9.65625 -1.375 "></path>
      </g>
    </g>
  </g>
  <g fill="#ffd700" fill-opacity="1">
    <g transform="translate(255.034538, 293.249513)">
      <g>
        <path d="M 11.265625 -4.015625 C 11.265625 -2.703125 11.367188 -1.75 11.578125 -1.15625 C 11.796875 -0.5625 12.148438 -0.25 12.640625 -0.21875 L 12.640625 0 L 8.203125 0 L 8.203125 -0.21875 C 8.679688 -0.25 9.023438 -0.5625 9.234375 -1.15625 C 9.453125 -1.75 9.5625 -2.703125 9.5625 -4.015625 L 9.5625 -8.921875 C 9.5625 -9.523438 9.515625 -10.101562 9.421875 -10.65625 C 9.335938 -11.21875 9.128906 -11.671875 8.796875 -12.015625 C 8.460938 -12.367188 7.945312 -12.546875 7.25 -12.546875 C 6.375 -12.546875 5.628906 -12.3125 5.015625 -11.84375 C 4.410156 -11.375 4.007812 -10.71875 3.8125 -9.875 L 3.796875 -9.875 L 3.796875 -4.015625 C 3.796875 -2.703125 3.898438 -1.75 4.109375 -1.15625 C 4.328125 -0.5625 4.679688 -0.25 5.171875 -0.21875 L 5.171875 0 L 0.734375 0 L 0.734375 -0.21875 C 1.234375 -0.25 1.582031 -0.5625 1.78125 -1.15625 C 1.988281 -1.75 2.09375 -2.703125 2.09375 -4.015625 L 2.09375 -8.53125 C 2.09375 -9.851562 1.988281 -10.8125 1.78125 -11.40625 C 1.582031 -12 1.234375 -12.300781 0.734375 -12.3125 L 0.734375 -12.5625 L 3.796875 -12.5625 L 3.796875 -10.640625 C 4.109375 -11.316406 4.5625 -11.84375 5.15625 -12.21875 C 5.757812 -12.59375 6.457031 -12.78125 7.25 -12.78125 C 8.34375 -12.78125 9.179688 -12.613281 9.765625 -12.28125 C 10.347656 -11.957031 10.742188 -11.507812 10.953125 -10.9375 C 11.160156 -10.363281 11.265625 -9.691406 11.265625 -8.921875 Z M 11.265625 -4.015625 "></path>
      </g>
    </g>
  </g>
  <g clip-path="url(#1f90faa6cf)">
    <path fill="#ffffff" d="M 185.136719 146.601562 L 168.382812 142.90625 C 150.316406 138.917969 143.375 132.90625 143.375 123.464844 C 143.375 111.5 152.589844 103.367188 170.175781 103.367188 C 184.832031 103.367188 194.417969 110.171875 197.839844 119.972656 C 198.089844 120.691406 198.320312 121.425781 198.488281 122.1875 C 198.644531 122.890625 198.765625 123.527344 198.867188 124.089844 C 199.152344 125.679688 200.542969 126.816406 202.15625 126.816406 L 223.773438 126.816406 C 224.703125 126.816406 225.59375 126.429688 226.222656 125.746094 C 226.855469 125.066406 227.179688 124.152344 227.113281 123.226562 C 225.257812 97.324219 202.671875 79.917969 170.910156 79.917969 C 136.40625 79.917969 113.226562 98.3125 113.226562 125.6875 C 113.226562 146.601562 129.121094 159.253906 155.566406 164.992188 L 174.4375 169.175781 C 193.113281 173.359375 200.324219 179.292969 200.324219 189.410156 C 200.324219 201.183594 188.671875 210.5625 171.511719 210.5625 C 155.753906 210.5625 144.0625 203.953125 139.964844 194.273438 C 139.28125 192.546875 138.804688 190.9375 138.492188 189.683594 C 138.109375 188.179688 136.78125 187.113281 135.230469 187.113281 L 113.226562 187.113281 C 112.292969 187.113281 111.394531 187.507812 110.761719 188.195312 C 110.128906 188.886719 109.8125 189.808594 109.890625 190.742188 C 112.09375 217.027344 135.648438 234.011719 169.898438 234.011719 C 207.261719 234.011719 230.472656 216.042969 230.472656 187.113281 C 230.472656 165.707031 214.710938 153.023438 185.136719 146.601562 Z M 185.136719 146.601562 " fill-opacity="1" fill-rule="nonzero"></path>
  </g>
  <g clip-path="url(#8b695793bc)">
    <g transform="matrix(1, 0, 0, 1, 184, 78)">
      <g clip-path="url(#90b62ba4bf)">
        <g clip-path="url(#dee8b487c4)">
          <path fill="#ffffff" d="M 0.652344 0.214844 L 6.652344 0.214844 L 6.652344 187.714844 L 0.652344 187.714844 Z M 0.652344 0.214844 " fill-opacity="1" fill-rule="nonzero"></path>
        </g>
      </g>
    </g>
  </g>
  <g clip-path="url(#66aa5d2bf8)">
    <path fill="#ffd700" d="M 189.96875 199.011719 L 206.722656 202.710938 C 224.789062 206.699219 231.730469 212.710938 231.730469 222.152344 C 231.730469 234.117188 222.515625 242.25 204.929688 242.25 C 190.273438 242.25 180.6875 235.445312 177.265625 225.640625 C 177.015625 224.925781 176.785156 224.191406 176.617188 223.429688 C 176.460938 222.726562 176.339844 222.089844 176.238281 221.527344 C 175.953125 219.9375 174.5625 218.800781 172.949219 218.800781 L 151.332031 218.800781 C 150.402344 218.800781 149.511719 219.1875 148.882812 219.871094 C 148.25 220.550781 147.925781 221.464844 147.992188 222.390625 C 149.847656 248.292969 172.433594 265.699219 204.195312 265.699219 C 238.695312 265.699219 261.878906 247.304688 261.878906 219.929688 C 261.878906 199.011719 245.984375 186.363281 219.539062 180.625 L 200.667969 176.441406 C 181.992188 172.257812 174.78125 166.324219 174.78125 156.203125 C 174.78125 144.433594 186.433594 135.054688 203.59375 135.054688 C 219.351562 135.054688 231.042969 141.664062 235.140625 151.34375 C 235.824219 153.070312 236.296875 154.679688 236.613281 155.933594 C 236.996094 157.4375 238.324219 158.503906 239.871094 158.503906 L 261.878906 158.503906 C 262.8125 158.503906 263.710938 158.109375 264.34375 157.421875 C 264.976562 156.730469 265.292969 155.808594 265.214844 154.875 C 263.011719 128.585938 239.457031 111.601562 205.207031 111.601562 C 167.84375 111.601562 144.632812 129.574219 144.632812 158.503906 C 144.632812 179.910156 160.394531 192.589844 189.96875 199.011719 Z M 189.96875 199.011719 " fill-opacity="1" fill-rule="nonzero"></path>
  </g>
</svg>
